<svg width="20" height="20" viewBox="0 0 20 20" fill="none" xmlns="http://www.w3.org/2000/svg">
<path d="M10 6.81005C8.2435 6.81005 6.81004 8.24351 6.81004 10C6.81004 11.7566 8.2435 13.19 10 13.19C11.7566 13.19 13.19 11.7566 13.19 10C13.19 8.24351 11.7566 6.81005 10 6.81005ZM19.5676 10C19.5676 8.67906 19.5796 7.37003 19.5054 6.05144C19.4312 4.51986 19.0818 3.16059 17.9619 2.04062C16.8395 0.918259 15.4826 0.571261 13.951 0.497075C12.63 0.422889 11.321 0.434855 10.0024 0.434855C8.68144 0.434855 7.37242 0.422889 6.05382 0.497075C4.52224 0.571261 3.16297 0.920652 2.043 2.04062C0.92064 3.16298 0.573641 4.51986 0.499456 6.05144C0.42527 7.37243 0.437235 8.68145 0.437235 10C0.437235 11.3186 0.42527 12.6301 0.499456 13.9486C0.573641 15.4802 0.923033 16.8395 2.043 17.9595C3.16536 19.0818 4.52224 19.4288 6.05382 19.503C7.37481 19.5772 8.68383 19.5652 10.0024 19.5652C11.3234 19.5652 12.6324 19.5772 13.951 19.503C15.4826 19.4288 16.8419 19.0794 17.9619 17.9595C19.0842 16.8371 19.4312 15.4802 19.5054 13.9486C19.582 12.6301 19.5676 11.321 19.5676 10ZM10 14.9083C7.28387 14.9083 5.0918 12.7162 5.0918 10C5.0918 7.28388 7.28387 5.09181 10 5.09181C12.7162 5.09181 14.9083 7.28388 14.9083 10C14.9083 12.7162 12.7162 14.9083 10 14.9083ZM15.1093 6.03708C14.4751 6.03708 13.963 5.52496 13.963 4.89079C13.963 4.25662 14.4751 3.7445 15.1093 3.7445C15.7435 3.7445 16.2556 4.25662 16.2556 4.89079C16.2558 5.04138 16.2262 5.19052 16.1687 5.32968C16.1112 5.46884 16.0267 5.59528 15.9203 5.70176C15.8138 5.80824 15.6873 5.89267 15.5482 5.95021C15.409 6.00775 15.2599 6.03727 15.1093 6.03708Z" fill="white"/>
</svg>
