<svg width="20" height="17" viewBox="0 0 20 17" fill="none" xmlns="http://www.w3.org/2000/svg">
<path d="M19.3013 2.52138C18.6042 2.83024 17.8554 3.03894 17.0682 3.13327C17.8805 2.64725 18.4881 1.88232 18.7778 0.981201C18.0147 1.43448 17.1795 1.75354 16.3086 1.92451C15.7229 1.29914 14.9471 0.884639 14.1017 0.745354C13.2563 0.606068 12.3885 0.749793 11.6331 1.15421C10.8778 1.55863 10.2771 2.20112 9.92427 2.98193C9.57147 3.76274 9.48633 4.63818 9.68205 5.47233C8.13578 5.39469 6.6231 4.99279 5.2422 4.2927C3.8613 3.59262 2.64303 2.61 1.66647 1.40861C1.33256 1.98461 1.14056 2.65244 1.14056 3.36367C1.14019 4.00395 1.29786 4.63441 1.59959 5.19913C1.90132 5.76386 2.33777 6.24537 2.87023 6.60096C2.25272 6.58131 1.64883 6.41445 1.10884 6.11428V6.16437C1.10877 7.06238 1.4194 7.93275 1.98802 8.62781C2.55663 9.32286 3.3482 9.79979 4.22842 9.97765C3.65558 10.1327 3.055 10.1555 2.47204 10.0444C2.72038 10.8171 3.20414 11.4928 3.85558 11.9769C4.50702 12.461 5.29353 12.7292 6.10501 12.7441C4.72748 13.8255 3.02624 14.4121 1.27496 14.4095C0.964737 14.4096 0.654778 14.3915 0.34668 14.3553C2.12433 15.4982 4.19364 16.1048 6.30703 16.1025C13.4611 16.1025 17.3721 10.1772 17.3721 5.03824C17.3721 4.87129 17.3679 4.70266 17.3604 4.53571C18.1211 3.98556 18.7778 3.30431 19.2996 2.52388L19.3013 2.52138Z" fill="white"/>
</svg>
